<?xml version="1.0" encoding="UTF-8" standalone="no"?>
<!-- Created with Inkscape (http://www.inkscape.org/) -->

<svg
   width="132.29167mm"
   height="132.29167mm"
   viewBox="0 0 132.29167 132.29167"
   version="1.1"
   id="svg3723"
   xmlns:xlink="http://www.w3.org/1999/xlink"
   xmlns="http://www.w3.org/2000/svg"
   xmlns:svg="http://www.w3.org/2000/svg">
  <defs
     id="defs3720">
    <linearGradient
       xlink:href="#a"
       id="b"
       gradientUnits="userSpaceOnUse"
       gradientTransform="matrix(0.23214,0,0,0.32895,-8.567,435.827)"
       x1="88.596001"
       y1="-449.39401"
       x2="536.59601"
       y2="-449.39401" />
    <linearGradient
       id="a">
      <stop
         offset="0"
         stop-color="#acabae"
         id="stop3" />
      <stop
         offset=".038"
         stop-color="#f7f7f7"
         id="stop5" />
      <stop
         offset=".077"
         stop-color="#deddda"
         id="stop7" />
      <stop
         offset=".923"
         stop-color="#b0afad"
         id="stop9" />
      <stop
         offset=".962"
         stop-color="#c0bfbc"
         id="stop11" />
      <stop
         offset="1"
         stop-color="#77767b"
         id="stop13" />
    </linearGradient>
  </defs>
  <g
     id="layer1"
     transform="translate(-222.34906,45.053069)">
    <g
       id="v2_anaconda"
       transform="matrix(3.9062502,0,0,3.9062502,-2393.7347,-3667.9206)">
      <desc
         id="desc3763">Anaconda Logo used by Live installation.</desc>
      <rect
         style="opacity:0;fill:#0000ff;fill-rule:evenodd;stroke-width:0.264583"
         id="rect2749"
         width="33.866665"
         height="33.866665"
         x="669.71741"
         y="927.45404" />
      <g
         id="g2703"
         transform="translate(-349.09429,-300.73408)">
        <g
           transform="matrix(0.26458333,0,0,0.26458333,1018.8117,1182.6798)"
           id="g36">
          <rect
             ry="8"
             rx="8"
             y="188"
             x="12"
             height="100"
             width="104"
             style="fill:url(#b);marker:none"
             fill="url(#b)"
             id="rect18" />
          <rect
             style="marker:none"
             width="104"
             height="100"
             x="12"
             y="184"
             rx="8"
             ry="8"
             fill="#ffffff"
             id="rect20" />
          <g
             transform="translate(-104,-365.5)"
             color="#000000"
             id="g26">
            <rect
               ry="4"
               rx="4"
               y="625.5"
               x="128"
               height="8"
               width="80"
               style="marker:none"
               overflow="visible"
               fill="#e1dedb"
               id="rect22" />
            <rect
               ry="4"
               rx="4"
               y="625.5"
               x="128"
               height="8"
               width="48.125"
               style="marker:none;fill:#000000"
               overflow="visible"
               fill="#3584e4"
               id="rect24" />
          </g>
        </g>
        <g
           id="use144123-3"
           transform="matrix(0.34369068,0,0,0.34369068,408.10459,1550.81)">
          <circle
             style="fill:#000000;stroke:none;stroke-width:0.265242;stroke-linejoin:round;stroke-miterlimit:4;stroke-dasharray:0.795728, 0.795728;stroke-dashoffset:0"
             id="use6742"
             cx="1826.1782"
             cy="-900.80432"
             r="2.6607823" />
          <g
             id="g6748">
            <g
               id="use6744"
               transform="translate(185.06365,-0.00307)">
              <g
                 id="g6776"
                 transform="translate(644.61064,-986.4434)">
                <path
                   d="m 998.33886,81.09853 v -11.9485 h 4.75234 m -13.08744,0 h 4.6453 v 11.9485 m 0,0 -8.4003,-8.3942 c 2.806,-2.8347 6.2002,-6.2136 9.2165,-9.2299 1.0277,-1.0277 1.0292,-1.0281 2.0573,0 3.00184,2.9869 6.22794,6.2499 9.23654,9.2299 l -8.42024,8.3942"
                   style="fill:none;fill-opacity:1;stroke:#000000;stroke-width:1.85208;stroke-linecap:round;stroke-linejoin:round;stroke-miterlimit:4;stroke-dasharray:none;stroke-dashoffset:0;stroke-opacity:1;paint-order:fill markers stroke"
                   id="use6772" />
                <path
                   d="m 998.33886,90.18585 v 11.9485 h 4.75234 m -13.08744,0 h 4.6453 v -11.9485 m 0,0 -8.4003,8.3942 c 2.806,2.8347 6.2002,6.2136 9.2165,9.2299 1.0277,1.0277 1.0292,1.0281 2.0573,0 3.00184,-2.9869 6.22794,-6.2499 9.23654,-9.2299 l -8.42024,-8.3942"
                   style="fill:none;fill-opacity:1;stroke:#000000;stroke-width:1.85208;stroke-linecap:round;stroke-linejoin:round;stroke-miterlimit:4;stroke-dasharray:none;stroke-dashoffset:0;stroke-opacity:1;paint-order:fill markers stroke"
                   id="use6774" />
              </g>
              <g
                 id="use6778"
                 transform="rotate(-90,825.58758,-729.88483)">
                <path
                   d="m 998.33886,81.09853 v -11.9485 h 4.75234 m -13.08744,0 h 4.6453 v 11.9485 m 0,0 -8.4003,-8.3942 c 2.806,-2.8347 6.2002,-6.2136 9.2165,-9.2299 1.0277,-1.0277 1.0292,-1.0281 2.0573,0 3.00184,2.9869 6.22794,6.2499 9.23654,9.2299 l -8.42024,8.3942"
                   style="fill:none;fill-opacity:1;stroke:#000000;stroke-width:1.85208;stroke-linecap:round;stroke-linejoin:round;stroke-miterlimit:4;stroke-dasharray:none;stroke-dashoffset:0;stroke-opacity:1;paint-order:fill markers stroke"
                   id="use6794" />
                <path
                   d="m 998.33886,90.18585 v 11.9485 h 4.75234 m -13.08744,0 h 4.6453 v -11.9485 m 0,0 -8.4003,8.3942 c 2.806,2.8347 6.2002,6.2136 9.2165,9.2299 1.0277,1.0277 1.0292,1.0281 2.0573,0 3.00184,-2.9869 6.22794,-6.2499 9.23654,-9.2299 l -8.42024,-8.3942"
                   style="fill:none;fill-opacity:1;stroke:#000000;stroke-width:1.85208;stroke-linecap:round;stroke-linejoin:round;stroke-miterlimit:4;stroke-dasharray:none;stroke-dashoffset:0;stroke-opacity:1;paint-order:fill markers stroke"
                   id="use6796" />
              </g>
            </g>
            <g
               id="use6746"
               transform="rotate(-45,1733.6446,-1124.1912)">
              <g
                 id="g6766"
                 transform="translate(644.61064,-986.4434)">
                <path
                   d="m 998.33886,81.09853 v -11.9485 h 4.75234 m -13.08744,0 h 4.6453 v 11.9485 m 0,0 -8.4003,-8.3942 c 2.806,-2.8347 6.2002,-6.2136 9.2165,-9.2299 1.0277,-1.0277 1.0292,-1.0281 2.0573,0 3.00184,2.9869 6.22794,6.2499 9.23654,9.2299 l -8.42024,8.3942"
                   style="fill:none;fill-opacity:1;stroke:#000000;stroke-width:1.85208;stroke-linecap:round;stroke-linejoin:round;stroke-miterlimit:4;stroke-dasharray:none;stroke-dashoffset:0;stroke-opacity:1;paint-order:fill markers stroke"
                   id="use6762" />
                <path
                   d="m 998.33886,90.18585 v 11.9485 h 4.75234 m -13.08744,0 h 4.6453 v -11.9485 m 0,0 -8.4003,8.3942 c 2.806,2.8347 6.2002,6.2136 9.2165,9.2299 1.0277,1.0277 1.0292,1.0281 2.0573,0 3.00184,-2.9869 6.22794,-6.2499 9.23654,-9.2299 l -8.42024,-8.3942"
                   style="fill:none;fill-opacity:1;stroke:#000000;stroke-width:1.85208;stroke-linecap:round;stroke-linejoin:round;stroke-miterlimit:4;stroke-dasharray:none;stroke-dashoffset:0;stroke-opacity:1;paint-order:fill markers stroke"
                   id="use6764" />
              </g>
              <g
                 id="use6768"
                 transform="rotate(-90,825.58758,-729.88483)">
                <path
                   d="m 998.33886,81.09853 v -11.9485 h 4.75234 m -13.08744,0 h 4.6453 v 11.9485 m 0,0 -8.4003,-8.3942 c 2.806,-2.8347 6.2002,-6.2136 9.2165,-9.2299 1.0277,-1.0277 1.0292,-1.0281 2.0573,0 3.00184,2.9869 6.22794,6.2499 9.23654,9.2299 l -8.42024,8.3942"
                   style="fill:none;fill-opacity:1;stroke:#000000;stroke-width:1.85208;stroke-linecap:round;stroke-linejoin:round;stroke-miterlimit:4;stroke-dasharray:none;stroke-dashoffset:0;stroke-opacity:1;paint-order:fill markers stroke"
                   id="use6788" />
                <path
                   d="m 998.33886,90.18585 v 11.9485 h 4.75234 m -13.08744,0 h 4.6453 v -11.9485 m 0,0 -8.4003,8.3942 c 2.806,2.8347 6.2002,6.2136 9.2165,9.2299 1.0277,1.0277 1.0292,1.0281 2.0573,0 3.00184,-2.9869 6.22794,-6.2499 9.23654,-9.2299 l -8.42024,-8.3942"
                   style="fill:none;fill-opacity:1;stroke:#000000;stroke-width:1.85208;stroke-linecap:round;stroke-linejoin:round;stroke-miterlimit:4;stroke-dasharray:none;stroke-dashoffset:0;stroke-opacity:1;paint-order:fill markers stroke"
                   id="use6790" />
              </g>
            </g>
          </g>
        </g>
      </g>
    </g>
  </g>
</svg>
