<?xml version="1.0" encoding="UTF-8" standalone="no"?>
<!-- Created with Inkscape (http://www.inkscape.org/) -->

<svg
   width="172.67929mm"
   height="44.979168mm"
   viewBox="0 0 172.67929 44.979168"
   version="1.1"
   id="svg9525"
   xmlns="http://www.w3.org/2000/svg"
   xmlns:svg="http://www.w3.org/2000/svg">
  <defs
     id="defs9522" />
  <g
     id="layer1"
     transform="matrix(0.53125,0,0,0.53125,30.52485,-43.829168)">
    <g
       id="v1_centos-logo"
       transform="matrix(3.8095246,0,0,3.8095246,-4377.6611,-1883.3056)">
      <g
         id="g19340">
        <path
           d="m 1143.4146,526.32529 0.8039,0.79926 -0.8039,0.79925 h -5.6585 v 2.66311 l -3.4509,-3.46236 3.4509,-3.40403 v 2.60477 z"
           id="path19316"
           style="display:inline;overflow:visible;visibility:visible;fill:#a14f8c;fill-opacity:1;fill-rule:evenodd;stroke:none;stroke-width:4.29439;marker:none" />
        <path
           d="m 1145.9769,525.38605 -0.7992,0.80396 -0.7993,-0.80396 v -5.65855 h -2.6631 l 3.4624,-3.45088 3.404,3.45088 h -2.6048 z"
           id="path19318"
           style="display:inline;overflow:visible;visibility:visible;fill:#efa724;fill-opacity:1;fill-rule:evenodd;stroke:none;stroke-width:4.29439;marker:none" />
        <path
           d="m 1146.9162,527.94841 -0.804,-0.79926 0.804,-0.79925 h 5.6585 v -2.66311 l 3.4509,3.46236 -3.4509,3.40403 v -2.60477 z"
           id="path19320"
           style="display:inline;overflow:visible;visibility:visible;fill:#262577;fill-opacity:1;fill-rule:evenodd;stroke:none;stroke-width:4.29439;marker:none" />
        <path
           d="m 1144.3538,528.88765 0.7992,-0.80396 0.7993,0.80396 v 5.65855 h 2.6631 l -3.4624,3.45088 -3.404,-3.45088 h 2.6048 z"
           id="path19322"
           style="display:inline;overflow:visible;visibility:visible;fill:#9ccd2a;fill-opacity:1;fill-rule:evenodd;stroke:none;stroke-width:4.29439;marker:none" />
        <path
           d="m 1137.5532,519.52469 h 6.8755 v 6.87552 h -6.8755 z"
           id="path19324"
           style="fill:#9ccd2a;fill-opacity:1;stroke:#ffffff;stroke-width:0.491106;stroke-linecap:butt;stroke-linejoin:miter;stroke-miterlimit:4;stroke-dashoffset:0;stroke-opacity:1" />
        <path
           d="m 1145.902,519.52469 h 6.8755 v 6.87552 h -6.8755 z"
           id="path19326"
           style="fill:#a14f8c;fill-opacity:1;stroke:#ffffff;stroke-width:0.491106;stroke-linecap:butt;stroke-linejoin:miter;stroke-miterlimit:4;stroke-dashoffset:0;stroke-opacity:1" />
        <path
           d="m 1145.902,527.87352 h 6.8755 v 6.87552 h -6.8755 z"
           id="path19328"
           style="fill:#efa724;fill-opacity:1;stroke:#ffffff;stroke-width:0.491106;stroke-linecap:butt;stroke-linejoin:miter;stroke-miterlimit:4;stroke-dashoffset:0;stroke-opacity:1" />
        <path
           d="m 1137.5532,527.87352 h 6.8755 v 6.87552 h -6.8755 z"
           id="path19330"
           style="fill:#262577;fill-opacity:1;stroke:#ffffff;stroke-width:0.491106;stroke-linecap:butt;stroke-linejoin:miter;stroke-miterlimit:4;stroke-dashoffset:0;stroke-opacity:1" />
        <path
           d="m 1134.4002,527.13687 4.8617,-4.86173 4.8617,4.86173 -4.8617,4.86172 z"
           id="path19332"
           style="fill:none;stroke:#ffffff;stroke-width:0.491106;stroke-linecap:butt;stroke-linejoin:miter;stroke-miterlimit:4;stroke-dashoffset:0;stroke-opacity:1" />
        <path
           d="m 1140.3037,521.23334 4.8617,-4.86172 4.8617,4.86172 -4.8617,4.86172 z"
           id="path19334"
           style="fill:none;stroke:#ffffff;stroke-width:0.491073;stroke-linecap:butt;stroke-linejoin:miter;stroke-miterlimit:4;stroke-dasharray:none;stroke-dashoffset:0;stroke-opacity:1" />
        <path
           d="m 1146.2071,527.13686 4.8618,-4.86173 4.8617,4.86173 -4.8617,4.86172 z"
           id="path19336"
           style="fill:none;stroke:#ffffff;stroke-width:0.491106;stroke-linecap:butt;stroke-linejoin:miter;stroke-miterlimit:4;stroke-dashoffset:0;stroke-opacity:1" />
        <path
           d="m 1140.3036,533.04038 4.8617,-4.86172 4.8618,4.86172 -4.8618,4.86173 z"
           id="path19338"
           style="fill:none;stroke:#ffffff;stroke-width:0.491106;stroke-linecap:butt;stroke-linejoin:miter;stroke-miterlimit:4;stroke-dashoffset:0;stroke-opacity:1" />
      </g>
      <g
         aria-label="CentOS"
         id="text19344"
         style="font-size:15.3488px;line-height:1.25;stroke-width:0.38372">
        <path
           d="m 1170.89,532.50891 h -4.7427 q -0.7214,0 -1.4275,-0.19953 -1.366,-0.41442 -2.1642,-1.90325 -0.7214,-1.3507 -0.7214,-3.14651 0,-1.73441 0.6447,-3.06976 0.706,-1.47348 2.0107,-2.01069 1.013,-0.41442 2.0721,-0.41442 h 4.2976 v 2.05674 h -4.4665 q -1.0897,0 -1.5809,1.18186 -0.3837,0.92093 -0.3837,2.40976 0,1.2586 0.4912,2.13348 0.5679,1.02837 1.5962,1.02837 l 4.3744,-0.0154 z"
           style="font-family:Denmark;-inkscape-font-specification:Denmark"
           id="path21194" />
        <path
           d="m 1178.9789,532.55496 h -3.7452 q -1.366,0 -2.379,-1.16651 -0.9977,-1.18186 -0.9977,-2.71674 0,-1.67302 1.0898,-2.88557 1.1051,-1.22791 2.4558,-1.22791 h 3.5609 v 1.64232 h -2.6093 q -0.4912,0 -0.8442,0.0921 -0.3377,0.0767 -0.6293,0.32232 -0.5372,0.46047 -0.5372,1.24325 h 4.6047 v 1.65768 h -4.5893 q 0,0.36837 0.077,0.6293 0.092,0.24558 0.353,0.50651 0.261,0.24558 0.614,0.33767 0.3684,0.0767 0.8902,0.0767 h 2.6861 z"
           style="font-family:Denmark;-inkscape-font-specification:Denmark"
           id="path21196" />
        <path
           d="m 1187.8965,532.50891 h -2.1335 v -5.23394 q 0,-0.19953 -0.092,-0.35302 -0.092,-0.16884 -0.2609,-0.32233 -0.307,-0.26093 -0.706,-0.26093 h -2.0875 v 6.17022 h -2.1335 v -7.95068 h 4.0828 q 1.0898,0 1.5809,0.12279 0.7675,0.18419 1.2279,0.81349 0.5219,0.73674 0.5219,1.61162 z"
           style="font-family:Denmark;-inkscape-font-specification:Denmark"
           id="path21198" />
        <path
           d="m 1194.1895,526.2159 h -2.0721 v 3.60697 q 0,0.49116 0.3377,0.81349 0.3837,0.32232 1.013,0.32232 h 0.6293 v 1.55023 h -1.98 q -0.8902,0 -1.5195,-0.64465 -0.3684,-0.38372 -0.4758,-0.84418 -0.1075,-0.46047 -0.1075,-1.08977 v -3.71441 h -1.3507 v -1.65767 h 1.3507 v -2.79348 h 2.1028 v 2.79348 h 2.0721 z"
           style="font-family:Denmark;-inkscape-font-specification:Denmark"
           id="path21200" />
        <path
           d="m 1206.8369,527.12148 q 0,3.13116 -1.7344,4.48185 -1.4121,1.08977 -4.1135,1.08977 -2.993,0 -4.4205,-1.2586 -1.5655,-1.3814 -1.5655,-4.43581 0,-2.50185 1.3967,-3.89859 1.5195,-1.51953 4.5432,-1.51953 3.3307,0 4.6968,1.45813 1.1972,1.2893 1.1972,4.08278 z m -2.7321,-0.0614 q 0,-1.58093 -0.7521,-2.51721 -0.8442,-1.04371 -2.5018,-1.04371 -1.627,0 -2.4559,1.12046 -0.6907,0.93627 -0.6907,2.44046 0,1.73441 0.5526,2.56325 0.7674,1.15116 2.8395,1.15116 1.7498,0 2.4558,-1.12047 0.5526,-0.87488 0.5526,-2.59394 z"
           style="font-family:Denmark;-inkscape-font-specification:Denmark"
           id="path21202" />
        <path
           d="m 1219.3768,529.17822 q 0,1.41209 -0.9362,2.37907 -0.9363,0.96697 -2.3791,0.96697 l -7.5977,-0.0154 v -1.93395 h 6.2624 q 0.6293,0 1.059,-0.29162 0.4912,-0.33768 0.4912,-0.92093 0,-1.36605 -1.934,-1.36605 h -3.1618 q -1.3661,0 -2.3944,-0.84418 -1.0284,-0.84418 -1.0284,-2.14883 0,-1.44279 0.9977,-2.33302 1.013,-0.90558 2.6553,-0.90558 h 7.26 v 1.84186 h -6.4005 q -0.4297,0 -0.8748,0.36837 -0.4298,0.35302 -0.4298,0.84418 0,0.55256 0.4144,0.93628 0.4298,0.36837 1.0284,0.36837 h 3.4842 q 1.6269,0 2.5479,0.84418 0.9362,0.82884 0.9362,2.21023 z"
           style="font-family:Denmark;-inkscape-font-specification:Denmark"
           id="path21204" />
      </g>
    </g>
  </g>
</svg>
