<?xml version="1.0" encoding="UTF-8" standalone="no"?>
<!-- Created with Inkscape (http://www.inkscape.org/) -->

<svg
   width="393.17465"
   height="100.00002"
   viewBox="0 0 104.02745 26.458337"
   version="1.1"
   id="svg5"
   xmlns="http://www.w3.org/2000/svg"
   xmlns:svg="http://www.w3.org/2000/svg">
  <defs
     id="defs2" />
  <g
     id="g8087"
     transform="matrix(1.0388458,0,0,1.0388422,-5.4363348,-6.4192483)">
    <path
       d="m 15.961184,17.983722 0.921238,0.915922 -0.921238,0.91591 H 9.4767489 v 3.051823 L 5.5221361,18.899644 9.4767489,14.998746 v 2.984976 z"
       id="path13654"
       style="display:inline;overflow:visible;visibility:visible;fill:#a14f8c;fill-opacity:1;fill-rule:evenodd;stroke:none;stroke-width:4.92121;marker:none" />
    <path
       d="m 18.897488,16.907385 -0.915853,0.921307 -0.915967,-0.921307 v -6.484503 h -3.051824 l 3.967791,-3.9545901 3.900863,3.9545901 h -2.98501 z"
       id="path13656"
       style="display:inline;overflow:visible;visibility:visible;fill:#efa724;fill-opacity:1;fill-rule:evenodd;stroke:none;stroke-width:4.92121;marker:none" />
    <path
       d="m 19.973893,19.843758 -0.921352,-0.915922 0.921352,-0.915921 h 6.484447 v -3.051824 l 3.954601,3.967745 -3.954601,3.900898 v -2.984976 z"
       id="path13658"
       style="display:inline;overflow:visible;visibility:visible;fill:#262577;fill-opacity:1;fill-rule:evenodd;stroke:none;stroke-width:4.92121;marker:none" />
    <path
       d="m 17.037475,20.920095 0.915853,-0.921318 0.915967,0.921318 v 6.484492 h 3.051824 l -3.967791,3.95459 -3.900863,-3.95459 h 2.98501 z"
       id="path13660"
       style="display:inline;overflow:visible;visibility:visible;fill:#9ccd2a;fill-opacity:1;fill-rule:evenodd;stroke:none;stroke-width:4.92121;marker:none" />
    <path
       d="m 9.2442259,10.190473 h 7.8790821 v 7.879105 H 9.2442259 Z"
       id="path13662"
       style="fill:#9ccd2a;fill-opacity:1;stroke:#ffffff;stroke-width:0.56279;stroke-linecap:butt;stroke-linejoin:miter;stroke-miterlimit:4;stroke-dashoffset:0;stroke-opacity:1" />
    <path
       d="m 18.811655,10.190473 h 7.879082 v 7.879105 h -7.879082 z"
       id="path13664"
       style="fill:#a14f8c;fill-opacity:1;stroke:#ffffff;stroke-width:0.56279;stroke-linecap:butt;stroke-linejoin:miter;stroke-miterlimit:4;stroke-dashoffset:0;stroke-opacity:1" />
    <path
       d="m 18.811655,19.757936 h 7.879082 v 7.879105 h -7.879082 z"
       id="path13666"
       style="fill:#efa724;fill-opacity:1;stroke:#ffffff;stroke-width:0.56279;stroke-linecap:butt;stroke-linejoin:miter;stroke-miterlimit:4;stroke-dashoffset:0;stroke-opacity:1" />
    <path
       d="m 9.2442259,19.757936 h 7.8790821 v 7.879105 H 9.2442259 Z"
       id="path13668"
       style="fill:#262577;fill-opacity:1;stroke:#ffffff;stroke-width:0.56279;stroke-linecap:butt;stroke-linejoin:miter;stroke-miterlimit:4;stroke-dashoffset:0;stroke-opacity:1" />
    <path
       d="m 5.6310043,18.913757 5.5713317,-5.571366 5.571343,5.571366 -5.571343,5.571355 z"
       id="path13670"
       style="fill:none;stroke:#ffffff;stroke-width:0.56279;stroke-linecap:butt;stroke-linejoin:miter;stroke-miterlimit:4;stroke-dashoffset:0;stroke-opacity:1" />
    <path
       d="m 12.396201,12.148526 5.571343,-5.5713659 5.571332,5.5713659 -5.571332,5.571355 z"
       id="path13672"
       style="fill:none;stroke:#ffffff;stroke-width:0.562752;stroke-linecap:butt;stroke-linejoin:miter;stroke-miterlimit:4;stroke-dasharray:none;stroke-dashoffset:0;stroke-opacity:1" />
    <path
       d="m 19.161295,18.913746 5.571446,-5.571366 5.571332,5.571366 -5.571332,5.571354 z"
       id="path13674"
       style="fill:none;stroke:#ffffff;stroke-width:0.56279;stroke-linecap:butt;stroke-linejoin:miter;stroke-miterlimit:4;stroke-dashoffset:0;stroke-opacity:1" />
    <path
       d="m 12.396087,25.678977 5.571343,-5.571366 5.571446,5.571366 -5.571446,5.571366 z"
       id="path13676"
       style="fill:none;stroke:#ffffff;stroke-width:0.56279;stroke-linecap:butt;stroke-linejoin:miter;stroke-miterlimit:4;stroke-dashoffset:0;stroke-opacity:1" />
  </g>
  <g
     id="g8113"
     transform="matrix(1.0388326,0,0,1.0388326,-5.4586579,-6.4190538)">
    <path
       d="m 43.707742,25.281075 c 2.145932,0 3.922405,-0.773932 5.083376,-2.198665 L 46.96182,21.393835 c -0.8267,0.967411 -1.864485,1.459908 -3.095716,1.459908 -2.30419,0 -3.940054,-1.618213 -3.940054,-3.939997 0,-2.321795 1.635864,-3.940009 3.940054,-3.940009 1.231231,0 2.269016,0.492497 3.095716,1.442327 l 1.829298,-1.688575 c -1.160971,-1.407141 -2.937444,-2.181061 -5.065737,-2.181061 -3.834506,0 -6.68395,2.655976 -6.68395,6.367318 0,3.711342 2.849444,6.367329 6.666311,6.367329 z"
       style="font-weight:bold;font-size:15.3489px;line-height:1.25;font-family:Montserrat;-inkscape-font-specification:'Montserrat, Normal';fill:#000000;stroke-width:0.439734"
       id="path3471" />
    <path
       d="m 59.450196,20.373666 c 0,-3.042959 -2.145931,-4.907432 -4.925014,-4.907432 -2.884619,0 -5.048201,2.040371 -5.048201,4.872245 0,2.814281 2.128395,4.872234 5.400009,4.872234 1.706123,0 3.025354,-0.527671 3.904765,-1.53027 l -1.45984,-1.583038 c -0.650916,0.615626 -1.372068,0.914643 -2.374552,0.914643 -1.44243,0 -2.444925,-0.721152 -2.708835,-1.899637 h 7.158842 c 0.01723,-0.228667 0.05271,-0.527683 0.05271,-0.738745 z m -4.907478,-2.831885 c 1.231219,0 2.128281,0.77392 2.321841,1.969998 h -4.661218 c 0.19356,-1.21366 1.090622,-1.969998 2.339377,-1.969998 z"
       style="font-weight:bold;font-size:15.3489px;line-height:1.25;font-family:Montserrat;-inkscape-font-specification:'Montserrat, Normal';fill:#000000;stroke-width:0.439734"
       id="path3473" />
    <path
       d="m 67.031094,15.466234 c -1.283942,0 -2.392088,0.439751 -3.130891,1.248846 V 15.606957 H 61.27938 v 9.463033 h 2.744022 v -4.678754 c 0,-1.741332 0.949773,-2.550439 2.269004,-2.550439 1.21358,0 1.917196,0.70357 1.917196,2.233841 v 4.995352 h 2.743896 v -5.417499 c 0,-2.884642 -1.688575,-4.186257 -3.922404,-4.186257 z"
       style="font-weight:bold;font-size:15.3489px;line-height:1.25;font-family:Montserrat;-inkscape-font-specification:'Montserrat, Normal';fill:#000000;stroke-width:0.439734"
       id="path3475" />
    <path
       d="m 78.798318,22.677856 c -0.298983,0.228655 -0.703513,0.351785 -1.108032,0.351785 -0.738803,0 -1.178508,-0.439728 -1.178508,-1.248835 v -3.852065 h 2.356901 V 15.81803 h -2.356901 v -2.304202 h -2.743897 v 2.304202 h -1.459965 v 2.110711 h 1.459965 v 3.88724 c 0,2.251422 1.301581,3.394732 3.53541,3.394732 0.844236,0 1.670937,-0.19348 2.233829,-0.598033 z"
       style="font-weight:bold;font-size:15.3489px;line-height:1.25;font-family:Montserrat;-inkscape-font-specification:'Montserrat, Normal';fill:#000000;stroke-width:0.439734"
       id="path3477" />
    <path
       d="m 87.241217,25.281075 c 3.869693,0 6.736662,-2.691162 6.736662,-6.367329 0,-3.676156 -2.866969,-6.367318 -6.736662,-6.367318 -3.887229,0 -6.736674,2.708744 -6.736674,6.367318 0,3.658574 2.849445,6.367329 6.736674,6.367329 z m 0,-2.427332 c -2.198654,0 -3.852054,-1.60062 -3.852054,-3.939997 0,-2.339377 1.6534,-3.940009 3.852054,-3.940009 2.198642,0 3.852042,1.600632 3.852042,3.940009 0,2.339377 -1.6534,3.939997 -3.852042,3.939997 z"
       style="font-weight:bold;font-size:15.3489px;line-height:1.25;font-family:Montserrat;-inkscape-font-specification:'Montserrat, Normal';fill:#000000;stroke-width:0.439734"
       id="path3479" />
    <path
       d="m 100.1693,25.281075 c 3.51788,0 5.22411,-1.758937 5.22411,-3.816879 0,-4.520449 -7.158844,-2.955004 -7.158844,-5.224031 0,-0.773931 0.65079,-1.40714 2.339364,-1.40714 1.09051,0 2.26902,0.31661 3.41235,0.967412 l 0.87941,-2.163479 c -1.14333,-0.721163 -2.72637,-1.09053 -4.27422,-1.09053 -3.500237,0 -5.188812,1.741332 -5.188812,3.834461 0,4.573217 7.158842,2.990178 7.158842,5.294369 0,0.75635 -0.68598,1.319197 -2.37455,1.319197 -1.477503,0 -3.025355,-0.527683 -4.06314,-1.28401 l -0.967423,2.145896 c 1.090496,0.844282 3.060529,1.424734 5.012913,1.424734 z"
       style="font-weight:bold;font-size:15.3489px;line-height:1.25;font-family:Montserrat;-inkscape-font-specification:'Montserrat, Normal';fill:#000000;stroke-width:0.439734"
       id="path3481" />
  </g>
</svg>
