<?xml version="1.0" encoding="UTF-8" standalone="no"?>
<!-- Created with Inkscape (http://www.inkscape.org/) -->

<svg
   width="170.0002"
   height="170"
   viewBox="0 0 44.979221 44.979165"
   version="1.1"
   id="svg5"
   xmlns="http://www.w3.org/2000/svg"
   xmlns:svg="http://www.w3.org/2000/svg">
  <defs
     id="defs2" />
  <g
     id="layer1"
     transform="matrix(0.36958478,0,0,0.36958436,-771.31578,27.463331)">
    <g
       id="use144123-1-4"
       transform="matrix(2.549831,0,0,2.549831,-2508.6156,2283.441)">
      <circle
         style="fill:#ffffff;stroke:none;stroke-width:0.265242;stroke-linejoin:round;stroke-miterlimit:4;stroke-dasharray:0.795728, 0.795728;stroke-dashoffset:0"
         id="use3669"
         cx="1826.1782"
         cy="-900.80432"
         r="2.6607823" />
      <g
         id="g3687">
        <g
           id="g3683"
           transform="translate(185.06365,-0.00307)"
           style="stroke:#ffffff">
          <g
             id="g3675"
             transform="translate(644.61064,-986.4434)"
             style="stroke:#ffffff">
            <path
               d="m 998.33886,81.09853 v -11.9485 h 4.75234 m -13.08744,0 h 4.6453 v 11.9485 m 0,0 -8.4003,-8.3942 c 2.806,-2.8347 6.2002,-6.2136 9.2165,-9.2299 1.0277,-1.0277 1.0292,-1.0281 2.0573,0 3.00184,2.9869 6.22794,6.2499 9.23654,9.2299 l -8.42024,8.3942"
               style="fill:none;fill-opacity:1;stroke:#ffffff;stroke-width:1.85208;stroke-linecap:round;stroke-linejoin:round;stroke-miterlimit:4;stroke-dasharray:none;stroke-dashoffset:0;stroke-opacity:1;paint-order:fill markers stroke"
               id="use3671" />
            <path
               d="m 998.33886,90.18585 v 11.9485 h 4.75234 m -13.08744,0 h 4.6453 v -11.9485 m 0,0 -8.4003,8.3942 c 2.806,2.8347 6.2002,6.2136 9.2165,9.2299 1.0277,1.0277 1.0292,1.0281 2.0573,0 3.00184,-2.9869 6.22794,-6.2499 9.23654,-9.2299 l -8.42024,-8.3942"
               style="fill:none;fill-opacity:1;stroke:#ffffff;stroke-width:1.85208;stroke-linecap:round;stroke-linejoin:round;stroke-miterlimit:4;stroke-dasharray:none;stroke-dashoffset:0;stroke-opacity:1;paint-order:fill markers stroke"
               id="use3673" />
          </g>
          <g
             id="g3681"
             transform="rotate(-90,825.58758,-729.88483)"
             style="stroke:#ffffff">
            <path
               d="m 998.33886,81.09853 v -11.9485 h 4.75234 m -13.08744,0 h 4.6453 v 11.9485 m 0,0 -8.4003,-8.3942 c 2.806,-2.8347 6.2002,-6.2136 9.2165,-9.2299 1.0277,-1.0277 1.0292,-1.0281 2.0573,0 3.00184,2.9869 6.22794,6.2499 9.23654,9.2299 l -8.42024,8.3942"
               style="fill:none;fill-opacity:1;stroke:#ffffff;stroke-width:1.85208;stroke-linecap:round;stroke-linejoin:round;stroke-miterlimit:4;stroke-dasharray:none;stroke-dashoffset:0;stroke-opacity:1;paint-order:fill markers stroke"
               id="use3677" />
            <path
               d="m 998.33886,90.18585 v 11.9485 h 4.75234 m -13.08744,0 h 4.6453 v -11.9485 m 0,0 -8.4003,8.3942 c 2.806,2.8347 6.2002,6.2136 9.2165,9.2299 1.0277,1.0277 1.0292,1.0281 2.0573,0 3.00184,-2.9869 6.22794,-6.2499 9.23654,-9.2299 l -8.42024,-8.3942"
               style="fill:none;fill-opacity:1;stroke:#ffffff;stroke-width:1.85208;stroke-linecap:round;stroke-linejoin:round;stroke-miterlimit:4;stroke-dasharray:none;stroke-dashoffset:0;stroke-opacity:1;paint-order:fill markers stroke"
               id="use3679" />
          </g>
        </g>
        <g
           id="use3685"
           transform="rotate(-45,1733.6446,-1124.1912)"
           style="stroke:#ffffff">
          <g
             id="g3767"
             transform="translate(644.61064,-986.4434)"
             style="stroke:#ffffff">
            <path
               d="m 998.33886,81.09853 v -11.9485 h 4.75234 m -13.08744,0 h 4.6453 v 11.9485 m 0,0 -8.4003,-8.3942 c 2.806,-2.8347 6.2002,-6.2136 9.2165,-9.2299 1.0277,-1.0277 1.0292,-1.0281 2.0573,0 3.00184,2.9869 6.22794,6.2499 9.23654,9.2299 l -8.42024,8.3942"
               style="fill:none;fill-opacity:1;stroke:#ffffff;stroke-width:1.85208;stroke-linecap:round;stroke-linejoin:round;stroke-miterlimit:4;stroke-dasharray:none;stroke-dashoffset:0;stroke-opacity:1;paint-order:fill markers stroke"
               id="use3763" />
            <path
               d="m 998.33886,90.18585 v 11.9485 h 4.75234 m -13.08744,0 h 4.6453 v -11.9485 m 0,0 -8.4003,8.3942 c 2.806,2.8347 6.2002,6.2136 9.2165,9.2299 1.0277,1.0277 1.0292,1.0281 2.0573,0 3.00184,-2.9869 6.22794,-6.2499 9.23654,-9.2299 l -8.42024,-8.3942"
               style="fill:none;fill-opacity:1;stroke:#ffffff;stroke-width:1.85208;stroke-linecap:round;stroke-linejoin:round;stroke-miterlimit:4;stroke-dasharray:none;stroke-dashoffset:0;stroke-opacity:1;paint-order:fill markers stroke"
               id="use3765" />
          </g>
          <g
             id="g3773"
             transform="rotate(-90,825.58758,-729.88483)"
             style="stroke:#ffffff">
            <path
               d="m 998.33886,81.09853 v -11.9485 h 4.75234 m -13.08744,0 h 4.6453 v 11.9485 m 0,0 -8.4003,-8.3942 c 2.806,-2.8347 6.2002,-6.2136 9.2165,-9.2299 1.0277,-1.0277 1.0292,-1.0281 2.0573,0 3.00184,2.9869 6.22794,6.2499 9.23654,9.2299 l -8.42024,8.3942"
               style="fill:none;fill-opacity:1;stroke:#ffffff;stroke-width:1.85208;stroke-linecap:round;stroke-linejoin:round;stroke-miterlimit:4;stroke-dasharray:none;stroke-dashoffset:0;stroke-opacity:1;paint-order:fill markers stroke"
               id="use3769" />
            <path
               d="m 998.33886,90.18585 v 11.9485 h 4.75234 m -13.08744,0 h 4.6453 v -11.9485 m 0,0 -8.4003,8.3942 c 2.806,2.8347 6.2002,6.2136 9.2165,9.2299 1.0277,1.0277 1.0292,1.0281 2.0573,0 3.00184,-2.9869 6.22794,-6.2499 9.23654,-9.2299 l -8.42024,-8.3942"
               style="fill:none;fill-opacity:1;stroke:#ffffff;stroke-width:1.85208;stroke-linecap:round;stroke-linejoin:round;stroke-miterlimit:4;stroke-dasharray:none;stroke-dashoffset:0;stroke-opacity:1;paint-order:fill markers stroke"
               id="use3771" />
          </g>
        </g>
      </g>
    </g>
  </g>
</svg>
